<mxfile host="app.diagrams.net" modified="2023-04-13T21:09:41.806Z" agent="Mozilla/5.0 (Windows NT 10.0; Win64; x64) AppleWebKit/537.36 (KHTML, like Gecko) Chrome/111.0.0.0 Safari/537.36" etag="RFieIEvODfGVkmFhnNPM" version="21.1.7" type="device">
  <diagram id="C5RBs43oDa-KdzZeNtuy" name="Page-1">
    <mxGraphModel dx="3452" dy="1308" grid="1" gridSize="10" guides="1" tooltips="1" connect="1" arrows="1" fold="1" page="1" pageScale="1" pageWidth="827" pageHeight="1169" math="0" shadow="0">
      <root>
        <mxCell id="WIyWlLk6GJQsqaUBKTNV-0" />
        <mxCell id="WIyWlLk6GJQsqaUBKTNV-1" parent="WIyWlLk6GJQsqaUBKTNV-0" />
        <mxCell id="zkfFHV4jXpPFQw0GAbJ--0" value="QApplication" style="swimlane;fontStyle=2;align=center;verticalAlign=top;childLayout=stackLayout;horizontal=1;startSize=26;horizontalStack=0;resizeParent=1;resizeLast=0;collapsible=1;marginBottom=0;rounded=0;shadow=0;strokeWidth=1;" parent="WIyWlLk6GJQsqaUBKTNV-1" vertex="1">
          <mxGeometry x="405" y="40" width="160" height="34" as="geometry">
            <mxRectangle x="230" y="140" width="160" height="26" as="alternateBounds" />
          </mxGeometry>
        </mxCell>
        <mxCell id="zkfFHV4jXpPFQw0GAbJ--4" value="" style="line;html=1;strokeWidth=1;align=left;verticalAlign=middle;spacingTop=-1;spacingLeft=3;spacingRight=3;rotatable=0;labelPosition=right;points=[];portConstraint=eastwest;" parent="zkfFHV4jXpPFQw0GAbJ--0" vertex="1">
          <mxGeometry y="26" width="160" height="8" as="geometry" />
        </mxCell>
        <mxCell id="zkfFHV4jXpPFQw0GAbJ--6" value="MainWindow" style="swimlane;fontStyle=0;align=center;verticalAlign=top;childLayout=stackLayout;horizontal=1;startSize=26;horizontalStack=0;resizeParent=1;resizeLast=0;collapsible=1;marginBottom=0;rounded=0;shadow=0;strokeWidth=1;" parent="WIyWlLk6GJQsqaUBKTNV-1" vertex="1">
          <mxGeometry x="255" y="420" width="460" height="350" as="geometry">
            <mxRectangle x="130" y="380" width="160" height="26" as="alternateBounds" />
          </mxGeometry>
        </mxCell>
        <mxCell id="zkfFHV4jXpPFQw0GAbJ--7" value="- _view : QGraphicsView*" style="text;align=left;verticalAlign=top;spacingLeft=4;spacingRight=4;overflow=hidden;rotatable=0;points=[[0,0.5],[1,0.5]];portConstraint=eastwest;" parent="zkfFHV4jXpPFQw0GAbJ--6" vertex="1">
          <mxGeometry y="26" width="460" height="26" as="geometry" />
        </mxCell>
        <mxCell id="zkfFHV4jXpPFQw0GAbJ--8" value="- _menu : QGraphicsScene* = new MainMenu(&amp;app, this)" style="text;align=left;verticalAlign=top;spacingLeft=4;spacingRight=4;overflow=hidden;rotatable=0;points=[[0,0.5],[1,0.5]];portConstraint=eastwest;rounded=0;shadow=0;html=0;" parent="zkfFHV4jXpPFQw0GAbJ--6" vertex="1">
          <mxGeometry y="52" width="460" height="26" as="geometry" />
        </mxCell>
        <mxCell id="Jlm5J0GIkbgBk4xAE6gq-16" value="- _settings : QGraphicsScene* = new Settings(&amp;app, this)" style="text;align=left;verticalAlign=top;spacingLeft=4;spacingRight=4;overflow=hidden;rotatable=0;points=[[0,0.5],[1,0.5]];portConstraint=eastwest;rounded=0;shadow=0;html=0;" vertex="1" parent="zkfFHV4jXpPFQw0GAbJ--6">
          <mxGeometry y="78" width="460" height="26" as="geometry" />
        </mxCell>
        <mxCell id="Jlm5J0GIkbgBk4xAE6gq-18" value="- _selectLevel : QGraphicsScene* = new SelectLevel(&amp;app, this)" style="text;align=left;verticalAlign=top;spacingLeft=4;spacingRight=4;overflow=hidden;rotatable=0;points=[[0,0.5],[1,0.5]];portConstraint=eastwest;rounded=0;shadow=0;html=0;" vertex="1" parent="zkfFHV4jXpPFQw0GAbJ--6">
          <mxGeometry y="104" width="460" height="26" as="geometry" />
        </mxCell>
        <mxCell id="Jlm5J0GIkbgBk4xAE6gq-19" value="- _game : QGraphicsScene*" style="text;align=left;verticalAlign=top;spacingLeft=4;spacingRight=4;overflow=hidden;rotatable=0;points=[[0,0.5],[1,0.5]];portConstraint=eastwest;rounded=0;shadow=0;html=0;" vertex="1" parent="zkfFHV4jXpPFQw0GAbJ--6">
          <mxGeometry y="130" width="460" height="26" as="geometry" />
        </mxCell>
        <mxCell id="zkfFHV4jXpPFQw0GAbJ--9" value="" style="line;html=1;strokeWidth=1;align=left;verticalAlign=middle;spacingTop=-1;spacingLeft=3;spacingRight=3;rotatable=0;labelPosition=right;points=[];portConstraint=eastwest;" parent="zkfFHV4jXpPFQw0GAbJ--6" vertex="1">
          <mxGeometry y="156" width="460" height="8" as="geometry" />
        </mxCell>
        <mxCell id="zkfFHV4jXpPFQw0GAbJ--11" value="	MainWindow()" style="text;align=left;verticalAlign=top;spacingLeft=4;spacingRight=4;overflow=hidden;rotatable=0;points=[[0,0.5],[1,0.5]];portConstraint=eastwest;" parent="zkfFHV4jXpPFQw0GAbJ--6" vertex="1">
          <mxGeometry y="164" width="460" height="26" as="geometry" />
        </mxCell>
        <mxCell id="zkfFHV4jXpPFQw0GAbJ--10" value="MainWindow(QApplication* app, QWidget* parent, QGraphicsScene* game)" style="text;align=left;verticalAlign=top;spacingLeft=4;spacingRight=4;overflow=hidden;rotatable=0;points=[[0,0.5],[1,0.5]];portConstraint=eastwest;fontStyle=0" parent="zkfFHV4jXpPFQw0GAbJ--6" vertex="1">
          <mxGeometry y="190" width="460" height="26" as="geometry" />
        </mxCell>
        <mxCell id="Jlm5J0GIkbgBk4xAE6gq-21" value="slots:" style="text;align=left;verticalAlign=top;spacingLeft=4;spacingRight=4;overflow=hidden;rotatable=0;points=[[0,0.5],[1,0.5]];portConstraint=eastwest;fontStyle=5" vertex="1" parent="zkfFHV4jXpPFQw0GAbJ--6">
          <mxGeometry y="216" width="460" height="26" as="geometry" />
        </mxCell>
        <mxCell id="Jlm5J0GIkbgBk4xAE6gq-20" value="+ showMenu() : void" style="text;align=left;verticalAlign=top;spacingLeft=4;spacingRight=4;overflow=hidden;rotatable=0;points=[[0,0.5],[1,0.5]];portConstraint=eastwest;fontStyle=0" vertex="1" parent="zkfFHV4jXpPFQw0GAbJ--6">
          <mxGeometry y="242" width="460" height="26" as="geometry" />
        </mxCell>
        <mxCell id="Jlm5J0GIkbgBk4xAE6gq-24" value="+ showGame() : void" style="text;align=left;verticalAlign=top;spacingLeft=4;spacingRight=4;overflow=hidden;rotatable=0;points=[[0,0.5],[1,0.5]];portConstraint=eastwest;fontStyle=0" vertex="1" parent="zkfFHV4jXpPFQw0GAbJ--6">
          <mxGeometry y="268" width="460" height="26" as="geometry" />
        </mxCell>
        <mxCell id="Jlm5J0GIkbgBk4xAE6gq-23" value="+ showSettings() : void" style="text;align=left;verticalAlign=top;spacingLeft=4;spacingRight=4;overflow=hidden;rotatable=0;points=[[0,0.5],[1,0.5]];portConstraint=eastwest;fontStyle=0" vertex="1" parent="zkfFHV4jXpPFQw0GAbJ--6">
          <mxGeometry y="294" width="460" height="26" as="geometry" />
        </mxCell>
        <mxCell id="Jlm5J0GIkbgBk4xAE6gq-22" value="+ showSelectLevel() : void" style="text;align=left;verticalAlign=top;spacingLeft=4;spacingRight=4;overflow=hidden;rotatable=0;points=[[0,0.5],[1,0.5]];portConstraint=eastwest;fontStyle=0" vertex="1" parent="zkfFHV4jXpPFQw0GAbJ--6">
          <mxGeometry y="320" width="460" height="30" as="geometry" />
        </mxCell>
        <mxCell id="zkfFHV4jXpPFQw0GAbJ--13" value="QObject" style="swimlane;fontStyle=0;align=center;verticalAlign=top;childLayout=stackLayout;horizontal=1;startSize=26;horizontalStack=0;resizeParent=1;resizeLast=0;collapsible=1;marginBottom=0;rounded=0;shadow=0;strokeWidth=1;" parent="WIyWlLk6GJQsqaUBKTNV-1" vertex="1">
          <mxGeometry x="40" y="140" width="160" height="40" as="geometry">
            <mxRectangle x="340" y="380" width="170" height="26" as="alternateBounds" />
          </mxGeometry>
        </mxCell>
        <mxCell id="zkfFHV4jXpPFQw0GAbJ--15" value="" style="line;html=1;strokeWidth=1;align=left;verticalAlign=middle;spacingTop=-1;spacingLeft=3;spacingRight=3;rotatable=0;labelPosition=right;points=[];portConstraint=eastwest;" parent="zkfFHV4jXpPFQw0GAbJ--13" vertex="1">
          <mxGeometry y="26" width="160" height="8" as="geometry" />
        </mxCell>
        <mxCell id="zkfFHV4jXpPFQw0GAbJ--17" value="GameLoop" style="swimlane;fontStyle=0;align=center;verticalAlign=top;childLayout=stackLayout;horizontal=1;startSize=26;horizontalStack=0;resizeParent=1;resizeLast=0;collapsible=1;marginBottom=0;rounded=0;shadow=0;strokeWidth=1;" parent="WIyWlLk6GJQsqaUBKTNV-1" vertex="1">
          <mxGeometry x="330" y="140" width="310" height="170" as="geometry">
            <mxRectangle x="550" y="140" width="160" height="26" as="alternateBounds" />
          </mxGeometry>
        </mxCell>
        <mxCell id="Jlm5J0GIkbgBk4xAE6gq-8" value="- app : QApplication*" style="text;align=left;verticalAlign=top;spacingLeft=4;spacingRight=4;overflow=hidden;rotatable=0;points=[[0,0.5],[1,0.5]];portConstraint=eastwest;rounded=0;shadow=0;html=0;" vertex="1" parent="zkfFHV4jXpPFQw0GAbJ--17">
          <mxGeometry y="26" width="310" height="26" as="geometry" />
        </mxCell>
        <mxCell id="zkfFHV4jXpPFQw0GAbJ--21" value="- _window = QMainWindow = new MainWindow(&amp;app)" style="text;align=left;verticalAlign=top;spacingLeft=4;spacingRight=4;overflow=hidden;rotatable=0;points=[[0,0.5],[1,0.5]];portConstraint=eastwest;rounded=0;shadow=0;html=0;" parent="zkfFHV4jXpPFQw0GAbJ--17" vertex="1">
          <mxGeometry y="52" width="310" height="26" as="geometry" />
        </mxCell>
        <mxCell id="Jlm5J0GIkbgBk4xAE6gq-26" value="- timer : QTimer*" style="text;align=left;verticalAlign=top;spacingLeft=4;spacingRight=4;overflow=hidden;rotatable=0;points=[[0,0.5],[1,0.5]];portConstraint=eastwest;rounded=0;shadow=0;html=0;" vertex="1" parent="zkfFHV4jXpPFQw0GAbJ--17">
          <mxGeometry y="78" width="310" height="26" as="geometry" />
        </mxCell>
        <mxCell id="zkfFHV4jXpPFQw0GAbJ--23" value="" style="line;html=1;strokeWidth=1;align=left;verticalAlign=middle;spacingTop=-1;spacingLeft=3;spacingRight=3;rotatable=0;labelPosition=right;points=[];portConstraint=eastwest;" parent="zkfFHV4jXpPFQw0GAbJ--17" vertex="1">
          <mxGeometry y="104" width="310" height="8" as="geometry" />
        </mxCell>
        <mxCell id="Jlm5J0GIkbgBk4xAE6gq-28" value="slots:" style="text;align=left;verticalAlign=top;spacingLeft=4;spacingRight=4;overflow=hidden;rotatable=0;points=[[0,0.5],[1,0.5]];portConstraint=eastwest;rounded=0;shadow=0;html=0;fontStyle=5" vertex="1" parent="zkfFHV4jXpPFQw0GAbJ--17">
          <mxGeometry y="112" width="310" height="26" as="geometry" />
        </mxCell>
        <mxCell id="Jlm5J0GIkbgBk4xAE6gq-29" value="MainGameLoop() : void" style="text;align=left;verticalAlign=top;spacingLeft=4;spacingRight=4;overflow=hidden;rotatable=0;points=[[0,0.5],[1,0.5]];portConstraint=eastwest;rounded=0;shadow=0;html=0;fontStyle=0" vertex="1" parent="zkfFHV4jXpPFQw0GAbJ--17">
          <mxGeometry y="138" width="310" height="26" as="geometry" />
        </mxCell>
        <mxCell id="Jlm5J0GIkbgBk4xAE6gq-9" value="" style="endArrow=diamondThin;endFill=1;endSize=24;html=1;rounded=0;exitX=0.5;exitY=1;exitDx=0;exitDy=0;" edge="1" parent="WIyWlLk6GJQsqaUBKTNV-1" source="zkfFHV4jXpPFQw0GAbJ--0" target="zkfFHV4jXpPFQw0GAbJ--17">
          <mxGeometry width="160" relative="1" as="geometry">
            <mxPoint x="465" y="100" as="sourcePoint" />
            <mxPoint x="625" y="100" as="targetPoint" />
          </mxGeometry>
        </mxCell>
        <mxCell id="Jlm5J0GIkbgBk4xAE6gq-10" value="" style="endArrow=block;endSize=16;endFill=0;html=1;rounded=0;" edge="1" parent="WIyWlLk6GJQsqaUBKTNV-1" source="zkfFHV4jXpPFQw0GAbJ--17" target="zkfFHV4jXpPFQw0GAbJ--13">
          <mxGeometry x="0.125" y="50" width="160" relative="1" as="geometry">
            <mxPoint x="370" y="320" as="sourcePoint" />
            <mxPoint x="530" y="320" as="targetPoint" />
            <mxPoint as="offset" />
          </mxGeometry>
        </mxCell>
        <mxCell id="Jlm5J0GIkbgBk4xAE6gq-11" value="QObject" style="swimlane;fontStyle=0;align=center;verticalAlign=top;childLayout=stackLayout;horizontal=1;startSize=26;horizontalStack=0;resizeParent=1;resizeLast=0;collapsible=1;marginBottom=0;rounded=0;shadow=0;strokeWidth=1;" vertex="1" parent="WIyWlLk6GJQsqaUBKTNV-1">
          <mxGeometry x="10" y="450" width="160" height="40" as="geometry">
            <mxRectangle x="340" y="380" width="170" height="26" as="alternateBounds" />
          </mxGeometry>
        </mxCell>
        <mxCell id="Jlm5J0GIkbgBk4xAE6gq-12" value="" style="line;html=1;strokeWidth=1;align=left;verticalAlign=middle;spacingTop=-1;spacingLeft=3;spacingRight=3;rotatable=0;labelPosition=right;points=[];portConstraint=eastwest;" vertex="1" parent="Jlm5J0GIkbgBk4xAE6gq-11">
          <mxGeometry y="26" width="160" height="8" as="geometry" />
        </mxCell>
        <mxCell id="Jlm5J0GIkbgBk4xAE6gq-13" value="" style="endArrow=block;endSize=16;endFill=0;html=1;rounded=0;" edge="1" parent="WIyWlLk6GJQsqaUBKTNV-1" source="zkfFHV4jXpPFQw0GAbJ--6" target="Jlm5J0GIkbgBk4xAE6gq-11">
          <mxGeometry x="0.125" y="50" width="160" relative="1" as="geometry">
            <mxPoint x="290" y="290" as="sourcePoint" />
            <mxPoint x="200" y="300" as="targetPoint" />
            <mxPoint as="offset" />
          </mxGeometry>
        </mxCell>
        <mxCell id="Jlm5J0GIkbgBk4xAE6gq-25" value="" style="endArrow=diamondThin;endFill=1;endSize=24;html=1;rounded=0;exitX=0.5;exitY=0;exitDx=0;exitDy=0;entryX=0.5;entryY=1;entryDx=0;entryDy=0;" edge="1" parent="WIyWlLk6GJQsqaUBKTNV-1" source="zkfFHV4jXpPFQw0GAbJ--6" target="zkfFHV4jXpPFQw0GAbJ--17">
          <mxGeometry width="160" relative="1" as="geometry">
            <mxPoint x="495" y="84" as="sourcePoint" />
            <mxPoint x="495" y="150" as="targetPoint" />
          </mxGeometry>
        </mxCell>
        <mxCell id="Jlm5J0GIkbgBk4xAE6gq-30" value="" style="endArrow=block;endSize=16;endFill=0;html=1;rounded=0;edgeStyle=orthogonalEdgeStyle;" edge="1" parent="WIyWlLk6GJQsqaUBKTNV-1" source="Jlm5J0GIkbgBk4xAE6gq-36" target="Jlm5J0GIkbgBk4xAE6gq-31">
          <mxGeometry x="0.125" y="50" width="160" relative="1" as="geometry">
            <mxPoint x="435" y="970" as="sourcePoint" />
            <mxPoint x="640" y="920" as="targetPoint" />
            <mxPoint as="offset" />
            <Array as="points">
              <mxPoint x="50" y="930" />
              <mxPoint x="485" y="930" />
            </Array>
          </mxGeometry>
        </mxCell>
        <mxCell id="Jlm5J0GIkbgBk4xAE6gq-31" value="&lt;span style=&quot;font-weight: normal;&quot;&gt;QGraphicsScene&lt;/span&gt;" style="swimlane;fontStyle=1;align=center;verticalAlign=top;childLayout=stackLayout;horizontal=1;startSize=26;horizontalStack=0;resizeParent=1;resizeParentMax=0;resizeLast=0;collapsible=1;marginBottom=0;whiteSpace=wrap;html=1;" vertex="1" parent="WIyWlLk6GJQsqaUBKTNV-1">
          <mxGeometry x="405" y="820" width="160" height="34" as="geometry" />
        </mxCell>
        <mxCell id="Jlm5J0GIkbgBk4xAE6gq-33" value="" style="line;strokeWidth=1;fillColor=none;align=left;verticalAlign=middle;spacingTop=-1;spacingLeft=3;spacingRight=3;rotatable=0;labelPosition=right;points=[];portConstraint=eastwest;strokeColor=inherit;" vertex="1" parent="Jlm5J0GIkbgBk4xAE6gq-31">
          <mxGeometry y="26" width="160" height="8" as="geometry" />
        </mxCell>
        <mxCell id="Jlm5J0GIkbgBk4xAE6gq-35" value="" style="endArrow=diamondThin;endFill=1;endSize=24;html=1;rounded=0;" edge="1" parent="WIyWlLk6GJQsqaUBKTNV-1" source="Jlm5J0GIkbgBk4xAE6gq-31" target="zkfFHV4jXpPFQw0GAbJ--6">
          <mxGeometry width="160" relative="1" as="geometry">
            <mxPoint x="495" y="860" as="sourcePoint" />
            <mxPoint x="495" y="750" as="targetPoint" />
          </mxGeometry>
        </mxCell>
        <mxCell id="Jlm5J0GIkbgBk4xAE6gq-36" value="&lt;span style=&quot;font-weight: 400;&quot;&gt;MainMenu&lt;/span&gt;" style="swimlane;fontStyle=1;align=center;verticalAlign=top;childLayout=stackLayout;horizontal=1;startSize=26;horizontalStack=0;resizeParent=1;resizeParentMax=0;resizeLast=0;collapsible=1;marginBottom=0;whiteSpace=wrap;html=1;" vertex="1" parent="WIyWlLk6GJQsqaUBKTNV-1">
          <mxGeometry x="-200" y="1010" width="435" height="502" as="geometry" />
        </mxCell>
        <mxCell id="Jlm5J0GIkbgBk4xAE6gq-37" value="- _app : QApplication*" style="text;strokeColor=none;fillColor=none;align=left;verticalAlign=top;spacingLeft=4;spacingRight=4;overflow=hidden;rotatable=0;points=[[0,0.5],[1,0.5]];portConstraint=eastwest;whiteSpace=wrap;html=1;" vertex="1" parent="Jlm5J0GIkbgBk4xAE6gq-36">
          <mxGeometry y="26" width="435" height="26" as="geometry" />
        </mxCell>
        <mxCell id="Jlm5J0GIkbgBk4xAE6gq-42" value="- _center[3] : QPushButton* = new QCustomButton(QString imgName)" style="text;strokeColor=none;fillColor=none;align=left;verticalAlign=top;spacingLeft=4;spacingRight=4;overflow=hidden;rotatable=0;points=[[0,0.5],[1,0.5]];portConstraint=eastwest;whiteSpace=wrap;html=1;" vertex="1" parent="Jlm5J0GIkbgBk4xAE6gq-36">
          <mxGeometry y="52" width="435" height="26" as="geometry" />
        </mxCell>
        <mxCell id="Jlm5J0GIkbgBk4xAE6gq-41" value="- _utils : QPointer&amp;lt;MenuUtils&amp;gt;" style="text;strokeColor=none;fillColor=none;align=left;verticalAlign=top;spacingLeft=4;spacingRight=4;overflow=hidden;rotatable=0;points=[[0,0.5],[1,0.5]];portConstraint=eastwest;whiteSpace=wrap;html=1;" vertex="1" parent="Jlm5J0GIkbgBk4xAE6gq-36">
          <mxGeometry y="78" width="435" height="26" as="geometry" />
        </mxCell>
        <mxCell id="Jlm5J0GIkbgBk4xAE6gq-40" value="- menu_on : bool" style="text;strokeColor=none;fillColor=none;align=left;verticalAlign=top;spacingLeft=4;spacingRight=4;overflow=hidden;rotatable=0;points=[[0,0.5],[1,0.5]];portConstraint=eastwest;whiteSpace=wrap;html=1;" vertex="1" parent="Jlm5J0GIkbgBk4xAE6gq-36">
          <mxGeometry y="104" width="435" height="26" as="geometry" />
        </mxCell>
        <mxCell id="Jlm5J0GIkbgBk4xAE6gq-45" value="- imageY : int" style="text;strokeColor=none;fillColor=none;align=left;verticalAlign=top;spacingLeft=4;spacingRight=4;overflow=hidden;rotatable=0;points=[[0,0.5],[1,0.5]];portConstraint=eastwest;whiteSpace=wrap;html=1;" vertex="1" parent="Jlm5J0GIkbgBk4xAE6gq-36">
          <mxGeometry y="130" width="435" height="26" as="geometry" />
        </mxCell>
        <mxCell id="Jlm5J0GIkbgBk4xAE6gq-38" value="" style="line;strokeWidth=1;fillColor=none;align=left;verticalAlign=middle;spacingTop=-1;spacingLeft=3;spacingRight=3;rotatable=0;labelPosition=right;points=[];portConstraint=eastwest;strokeColor=inherit;" vertex="1" parent="Jlm5J0GIkbgBk4xAE6gq-36">
          <mxGeometry y="156" width="435" height="8" as="geometry" />
        </mxCell>
        <mxCell id="Jlm5J0GIkbgBk4xAE6gq-75" value="MainMenu()" style="text;strokeColor=none;fillColor=none;align=left;verticalAlign=top;spacingLeft=4;spacingRight=4;overflow=hidden;rotatable=0;points=[[0,0.5],[1,0.5]];portConstraint=eastwest;whiteSpace=wrap;html=1;" vertex="1" parent="Jlm5J0GIkbgBk4xAE6gq-36">
          <mxGeometry y="164" width="435" height="26" as="geometry" />
        </mxCell>
        <mxCell id="Jlm5J0GIkbgBk4xAE6gq-39" value="MainMenu(QApplication* app, QWidget* parent = nullptr)" style="text;strokeColor=none;fillColor=none;align=left;verticalAlign=top;spacingLeft=4;spacingRight=4;overflow=hidden;rotatable=0;points=[[0,0.5],[1,0.5]];portConstraint=eastwest;whiteSpace=wrap;html=1;" vertex="1" parent="Jlm5J0GIkbgBk4xAE6gq-36">
          <mxGeometry y="190" width="435" height="26" as="geometry" />
        </mxCell>
        <mxCell id="Jlm5J0GIkbgBk4xAE6gq-44" value="- initUI() : void" style="text;strokeColor=none;fillColor=none;align=left;verticalAlign=top;spacingLeft=4;spacingRight=4;overflow=hidden;rotatable=0;points=[[0,0.5],[1,0.5]];portConstraint=eastwest;whiteSpace=wrap;html=1;" vertex="1" parent="Jlm5J0GIkbgBk4xAE6gq-36">
          <mxGeometry y="216" width="435" height="26" as="geometry" />
        </mxCell>
        <mxCell id="Jlm5J0GIkbgBk4xAE6gq-43" value="+ on_menu() : bool" style="text;strokeColor=none;fillColor=none;align=left;verticalAlign=top;spacingLeft=4;spacingRight=4;overflow=hidden;rotatable=0;points=[[0,0.5],[1,0.5]];portConstraint=eastwest;whiteSpace=wrap;html=1;" vertex="1" parent="Jlm5J0GIkbgBk4xAE6gq-36">
          <mxGeometry y="242" width="435" height="26" as="geometry" />
        </mxCell>
        <mxCell id="Jlm5J0GIkbgBk4xAE6gq-48" value="&lt;b&gt;&lt;u&gt;slots:&lt;/u&gt;&lt;/b&gt;" style="text;strokeColor=none;fillColor=none;align=left;verticalAlign=top;spacingLeft=4;spacingRight=4;overflow=hidden;rotatable=0;points=[[0,0.5],[1,0.5]];portConstraint=eastwest;whiteSpace=wrap;html=1;" vertex="1" parent="Jlm5J0GIkbgBk4xAE6gq-36">
          <mxGeometry y="268" width="435" height="26" as="geometry" />
        </mxCell>
        <mxCell id="Jlm5J0GIkbgBk4xAE6gq-47" value="+ exit_clicked() : void" style="text;strokeColor=none;fillColor=none;align=left;verticalAlign=top;spacingLeft=4;spacingRight=4;overflow=hidden;rotatable=0;points=[[0,0.5],[1,0.5]];portConstraint=eastwest;whiteSpace=wrap;html=1;" vertex="1" parent="Jlm5J0GIkbgBk4xAE6gq-36">
          <mxGeometry y="294" width="435" height="26" as="geometry" />
        </mxCell>
        <mxCell id="Jlm5J0GIkbgBk4xAE6gq-49" value="+ showSettingsUI() : void" style="text;strokeColor=none;fillColor=none;align=left;verticalAlign=top;spacingLeft=4;spacingRight=4;overflow=hidden;rotatable=0;points=[[0,0.5],[1,0.5]];portConstraint=eastwest;whiteSpace=wrap;html=1;" vertex="1" parent="Jlm5J0GIkbgBk4xAE6gq-36">
          <mxGeometry y="320" width="435" height="26" as="geometry" />
        </mxCell>
        <mxCell id="Jlm5J0GIkbgBk4xAE6gq-46" value="+ showGameUI() : void" style="text;strokeColor=none;fillColor=none;align=left;verticalAlign=top;spacingLeft=4;spacingRight=4;overflow=hidden;rotatable=0;points=[[0,0.5],[1,0.5]];portConstraint=eastwest;whiteSpace=wrap;html=1;" vertex="1" parent="Jlm5J0GIkbgBk4xAE6gq-36">
          <mxGeometry y="346" width="435" height="26" as="geometry" />
        </mxCell>
        <mxCell id="Jlm5J0GIkbgBk4xAE6gq-51" value="+ showSelectLevelUI() ; void" style="text;strokeColor=none;fillColor=none;align=left;verticalAlign=top;spacingLeft=4;spacingRight=4;overflow=hidden;rotatable=0;points=[[0,0.5],[1,0.5]];portConstraint=eastwest;whiteSpace=wrap;html=1;" vertex="1" parent="Jlm5J0GIkbgBk4xAE6gq-36">
          <mxGeometry y="372" width="435" height="26" as="geometry" />
        </mxCell>
        <mxCell id="Jlm5J0GIkbgBk4xAE6gq-50" value="&lt;b&gt;&lt;u&gt;signals:&lt;/u&gt;&lt;/b&gt;" style="text;strokeColor=none;fillColor=none;align=left;verticalAlign=top;spacingLeft=4;spacingRight=4;overflow=hidden;rotatable=0;points=[[0,0.5],[1,0.5]];portConstraint=eastwest;whiteSpace=wrap;html=1;" vertex="1" parent="Jlm5J0GIkbgBk4xAE6gq-36">
          <mxGeometry y="398" width="435" height="26" as="geometry" />
        </mxCell>
        <mxCell id="Jlm5J0GIkbgBk4xAE6gq-52" value="+ showSettingsRequested() : void" style="text;strokeColor=none;fillColor=none;align=left;verticalAlign=top;spacingLeft=4;spacingRight=4;overflow=hidden;rotatable=0;points=[[0,0.5],[1,0.5]];portConstraint=eastwest;whiteSpace=wrap;html=1;" vertex="1" parent="Jlm5J0GIkbgBk4xAE6gq-36">
          <mxGeometry y="424" width="435" height="26" as="geometry" />
        </mxCell>
        <mxCell id="Jlm5J0GIkbgBk4xAE6gq-54" value="+ showGameRequested() : void" style="text;strokeColor=none;fillColor=none;align=left;verticalAlign=top;spacingLeft=4;spacingRight=4;overflow=hidden;rotatable=0;points=[[0,0.5],[1,0.5]];portConstraint=eastwest;whiteSpace=wrap;html=1;" vertex="1" parent="Jlm5J0GIkbgBk4xAE6gq-36">
          <mxGeometry y="450" width="435" height="26" as="geometry" />
        </mxCell>
        <mxCell id="Jlm5J0GIkbgBk4xAE6gq-53" value="+ showSelectLevelRequested() : void" style="text;strokeColor=none;fillColor=none;align=left;verticalAlign=top;spacingLeft=4;spacingRight=4;overflow=hidden;rotatable=0;points=[[0,0.5],[1,0.5]];portConstraint=eastwest;whiteSpace=wrap;html=1;" vertex="1" parent="Jlm5J0GIkbgBk4xAE6gq-36">
          <mxGeometry y="476" width="435" height="26" as="geometry" />
        </mxCell>
        <mxCell id="Jlm5J0GIkbgBk4xAE6gq-55" value="&lt;span style=&quot;font-weight: 400;&quot;&gt;Settings&lt;/span&gt;" style="swimlane;fontStyle=1;align=center;verticalAlign=top;childLayout=stackLayout;horizontal=1;startSize=26;horizontalStack=0;resizeParent=1;resizeParentMax=0;resizeLast=0;collapsible=1;marginBottom=0;whiteSpace=wrap;html=1;" vertex="1" parent="WIyWlLk6GJQsqaUBKTNV-1">
          <mxGeometry x="305" y="1010" width="370" height="346" as="geometry" />
        </mxCell>
        <mxCell id="Jlm5J0GIkbgBk4xAE6gq-56" value="- _app : QApplication*" style="text;strokeColor=none;fillColor=none;align=left;verticalAlign=top;spacingLeft=4;spacingRight=4;overflow=hidden;rotatable=0;points=[[0,0.5],[1,0.5]];portConstraint=eastwest;whiteSpace=wrap;html=1;" vertex="1" parent="Jlm5J0GIkbgBk4xAE6gq-55">
          <mxGeometry y="26" width="370" height="26" as="geometry" />
        </mxCell>
        <mxCell id="Jlm5J0GIkbgBk4xAE6gq-57" value="- _center[3] : QPushButton*" style="text;strokeColor=none;fillColor=none;align=left;verticalAlign=top;spacingLeft=4;spacingRight=4;overflow=hidden;rotatable=0;points=[[0,0.5],[1,0.5]];portConstraint=eastwest;whiteSpace=wrap;html=1;" vertex="1" parent="Jlm5J0GIkbgBk4xAE6gq-55">
          <mxGeometry y="52" width="370" height="26" as="geometry" />
        </mxCell>
        <mxCell id="Jlm5J0GIkbgBk4xAE6gq-58" value="- utils : QPointer&amp;lt;MenuUtils&amp;gt;" style="text;strokeColor=none;fillColor=none;align=left;verticalAlign=top;spacingLeft=4;spacingRight=4;overflow=hidden;rotatable=0;points=[[0,0.5],[1,0.5]];portConstraint=eastwest;whiteSpace=wrap;html=1;" vertex="1" parent="Jlm5J0GIkbgBk4xAE6gq-55">
          <mxGeometry y="78" width="370" height="26" as="geometry" />
        </mxCell>
        <mxCell id="Jlm5J0GIkbgBk4xAE6gq-59" value="- _buttons[6] : QPushButton*" style="text;strokeColor=none;fillColor=none;align=left;verticalAlign=top;spacingLeft=4;spacingRight=4;overflow=hidden;rotatable=0;points=[[0,0.5],[1,0.5]];portConstraint=eastwest;whiteSpace=wrap;html=1;" vertex="1" parent="Jlm5J0GIkbgBk4xAE6gq-55">
          <mxGeometry y="104" width="370" height="26" as="geometry" />
        </mxCell>
        <mxCell id="Jlm5J0GIkbgBk4xAE6gq-60" value="- imageY : int" style="text;strokeColor=none;fillColor=none;align=left;verticalAlign=top;spacingLeft=4;spacingRight=4;overflow=hidden;rotatable=0;points=[[0,0.5],[1,0.5]];portConstraint=eastwest;whiteSpace=wrap;html=1;" vertex="1" parent="Jlm5J0GIkbgBk4xAE6gq-55">
          <mxGeometry y="130" width="370" height="26" as="geometry" />
        </mxCell>
        <mxCell id="Jlm5J0GIkbgBk4xAE6gq-61" value="" style="line;strokeWidth=1;fillColor=none;align=left;verticalAlign=middle;spacingTop=-1;spacingLeft=3;spacingRight=3;rotatable=0;labelPosition=right;points=[];portConstraint=eastwest;strokeColor=inherit;" vertex="1" parent="Jlm5J0GIkbgBk4xAE6gq-55">
          <mxGeometry y="156" width="370" height="8" as="geometry" />
        </mxCell>
        <mxCell id="Jlm5J0GIkbgBk4xAE6gq-76" value="Settings()" style="text;strokeColor=none;fillColor=none;align=left;verticalAlign=top;spacingLeft=4;spacingRight=4;overflow=hidden;rotatable=0;points=[[0,0.5],[1,0.5]];portConstraint=eastwest;whiteSpace=wrap;html=1;" vertex="1" parent="Jlm5J0GIkbgBk4xAE6gq-55">
          <mxGeometry y="164" width="370" height="26" as="geometry" />
        </mxCell>
        <mxCell id="Jlm5J0GIkbgBk4xAE6gq-62" value="Settings(QApplication* app, QWidget* parent = nullptr)" style="text;strokeColor=none;fillColor=none;align=left;verticalAlign=top;spacingLeft=4;spacingRight=4;overflow=hidden;rotatable=0;points=[[0,0.5],[1,0.5]];portConstraint=eastwest;whiteSpace=wrap;html=1;" vertex="1" parent="Jlm5J0GIkbgBk4xAE6gq-55">
          <mxGeometry y="190" width="370" height="26" as="geometry" />
        </mxCell>
        <mxCell id="Jlm5J0GIkbgBk4xAE6gq-63" value="- initUI() : void" style="text;strokeColor=none;fillColor=none;align=left;verticalAlign=top;spacingLeft=4;spacingRight=4;overflow=hidden;rotatable=0;points=[[0,0.5],[1,0.5]];portConstraint=eastwest;whiteSpace=wrap;html=1;" vertex="1" parent="Jlm5J0GIkbgBk4xAE6gq-55">
          <mxGeometry y="216" width="370" height="26" as="geometry" />
        </mxCell>
        <mxCell id="Jlm5J0GIkbgBk4xAE6gq-65" value="&lt;b&gt;&lt;u&gt;slots:&lt;/u&gt;&lt;/b&gt;" style="text;strokeColor=none;fillColor=none;align=left;verticalAlign=top;spacingLeft=4;spacingRight=4;overflow=hidden;rotatable=0;points=[[0,0.5],[1,0.5]];portConstraint=eastwest;whiteSpace=wrap;html=1;" vertex="1" parent="Jlm5J0GIkbgBk4xAE6gq-55">
          <mxGeometry y="242" width="370" height="26" as="geometry" />
        </mxCell>
        <mxCell id="Jlm5J0GIkbgBk4xAE6gq-66" value="+ exit_clicked() : void" style="text;strokeColor=none;fillColor=none;align=left;verticalAlign=top;spacingLeft=4;spacingRight=4;overflow=hidden;rotatable=0;points=[[0,0.5],[1,0.5]];portConstraint=eastwest;whiteSpace=wrap;html=1;" vertex="1" parent="Jlm5J0GIkbgBk4xAE6gq-55">
          <mxGeometry y="268" width="370" height="26" as="geometry" />
        </mxCell>
        <mxCell id="Jlm5J0GIkbgBk4xAE6gq-70" value="&lt;b&gt;&lt;u&gt;signals:&lt;/u&gt;&lt;/b&gt;" style="text;strokeColor=none;fillColor=none;align=left;verticalAlign=top;spacingLeft=4;spacingRight=4;overflow=hidden;rotatable=0;points=[[0,0.5],[1,0.5]];portConstraint=eastwest;whiteSpace=wrap;html=1;" vertex="1" parent="Jlm5J0GIkbgBk4xAE6gq-55">
          <mxGeometry y="294" width="370" height="26" as="geometry" />
        </mxCell>
        <mxCell id="Jlm5J0GIkbgBk4xAE6gq-71" value="- exit_click() : void" style="text;strokeColor=none;fillColor=none;align=left;verticalAlign=top;spacingLeft=4;spacingRight=4;overflow=hidden;rotatable=0;points=[[0,0.5],[1,0.5]];portConstraint=eastwest;whiteSpace=wrap;html=1;" vertex="1" parent="Jlm5J0GIkbgBk4xAE6gq-55">
          <mxGeometry y="320" width="370" height="26" as="geometry" />
        </mxCell>
        <mxCell id="Jlm5J0GIkbgBk4xAE6gq-74" value="" style="endArrow=block;endSize=16;endFill=0;html=1;rounded=0;edgeStyle=orthogonalEdgeStyle;" edge="1" parent="WIyWlLk6GJQsqaUBKTNV-1" source="Jlm5J0GIkbgBk4xAE6gq-55" target="Jlm5J0GIkbgBk4xAE6gq-31">
          <mxGeometry x="0.125" y="50" width="160" relative="1" as="geometry">
            <mxPoint x="340" y="996" as="sourcePoint" />
            <mxPoint x="516" y="830" as="targetPoint" />
            <mxPoint as="offset" />
            <Array as="points">
              <mxPoint x="485" y="1000" />
              <mxPoint x="485" y="1000" />
            </Array>
          </mxGeometry>
        </mxCell>
        <mxCell id="Jlm5J0GIkbgBk4xAE6gq-77" value="&lt;span style=&quot;font-weight: 400;&quot;&gt;SelectLevel&lt;/span&gt;" style="swimlane;fontStyle=1;align=center;verticalAlign=top;childLayout=stackLayout;horizontal=1;startSize=26;horizontalStack=0;resizeParent=1;resizeParentMax=0;resizeLast=0;collapsible=1;marginBottom=0;whiteSpace=wrap;html=1;" vertex="1" parent="WIyWlLk6GJQsqaUBKTNV-1">
          <mxGeometry x="735" y="1010" width="370" height="346" as="geometry" />
        </mxCell>
        <mxCell id="Jlm5J0GIkbgBk4xAE6gq-78" value="- _app : QApplication*" style="text;strokeColor=none;fillColor=none;align=left;verticalAlign=top;spacingLeft=4;spacingRight=4;overflow=hidden;rotatable=0;points=[[0,0.5],[1,0.5]];portConstraint=eastwest;whiteSpace=wrap;html=1;" vertex="1" parent="Jlm5J0GIkbgBk4xAE6gq-77">
          <mxGeometry y="26" width="370" height="26" as="geometry" />
        </mxCell>
        <mxCell id="Jlm5J0GIkbgBk4xAE6gq-80" value="- utils : QPointer&amp;lt;MenuUtils&amp;gt;" style="text;strokeColor=none;fillColor=none;align=left;verticalAlign=top;spacingLeft=4;spacingRight=4;overflow=hidden;rotatable=0;points=[[0,0.5],[1,0.5]];portConstraint=eastwest;whiteSpace=wrap;html=1;" vertex="1" parent="Jlm5J0GIkbgBk4xAE6gq-77">
          <mxGeometry y="52" width="370" height="26" as="geometry" />
        </mxCell>
        <mxCell id="Jlm5J0GIkbgBk4xAE6gq-81" value="- _images[6] : QPushButton*" style="text;strokeColor=none;fillColor=none;align=left;verticalAlign=top;spacingLeft=4;spacingRight=4;overflow=hidden;rotatable=0;points=[[0,0.5],[1,0.5]];portConstraint=eastwest;whiteSpace=wrap;html=1;" vertex="1" parent="Jlm5J0GIkbgBk4xAE6gq-77">
          <mxGeometry y="78" width="370" height="26" as="geometry" />
        </mxCell>
        <mxCell id="Jlm5J0GIkbgBk4xAE6gq-82" value="- imageY : int" style="text;strokeColor=none;fillColor=none;align=left;verticalAlign=top;spacingLeft=4;spacingRight=4;overflow=hidden;rotatable=0;points=[[0,0.5],[1,0.5]];portConstraint=eastwest;whiteSpace=wrap;html=1;" vertex="1" parent="Jlm5J0GIkbgBk4xAE6gq-77">
          <mxGeometry y="104" width="370" height="26" as="geometry" />
        </mxCell>
        <mxCell id="Jlm5J0GIkbgBk4xAE6gq-83" value="" style="line;strokeWidth=1;fillColor=none;align=left;verticalAlign=middle;spacingTop=-1;spacingLeft=3;spacingRight=3;rotatable=0;labelPosition=right;points=[];portConstraint=eastwest;strokeColor=inherit;" vertex="1" parent="Jlm5J0GIkbgBk4xAE6gq-77">
          <mxGeometry y="130" width="370" height="8" as="geometry" />
        </mxCell>
        <mxCell id="Jlm5J0GIkbgBk4xAE6gq-85" value="SelectLevel(QApplication* app, QWidget* parent = nullptr)" style="text;strokeColor=none;fillColor=none;align=left;verticalAlign=top;spacingLeft=4;spacingRight=4;overflow=hidden;rotatable=0;points=[[0,0.5],[1,0.5]];portConstraint=eastwest;whiteSpace=wrap;html=1;" vertex="1" parent="Jlm5J0GIkbgBk4xAE6gq-77">
          <mxGeometry y="138" width="370" height="26" as="geometry" />
        </mxCell>
        <mxCell id="Jlm5J0GIkbgBk4xAE6gq-86" value="- initUI() : void" style="text;strokeColor=none;fillColor=none;align=left;verticalAlign=top;spacingLeft=4;spacingRight=4;overflow=hidden;rotatable=0;points=[[0,0.5],[1,0.5]];portConstraint=eastwest;whiteSpace=wrap;html=1;" vertex="1" parent="Jlm5J0GIkbgBk4xAE6gq-77">
          <mxGeometry y="164" width="370" height="26" as="geometry" />
        </mxCell>
        <mxCell id="Jlm5J0GIkbgBk4xAE6gq-87" value="&lt;b&gt;&lt;u&gt;slots:&lt;/u&gt;&lt;/b&gt;" style="text;strokeColor=none;fillColor=none;align=left;verticalAlign=top;spacingLeft=4;spacingRight=4;overflow=hidden;rotatable=0;points=[[0,0.5],[1,0.5]];portConstraint=eastwest;whiteSpace=wrap;html=1;" vertex="1" parent="Jlm5J0GIkbgBk4xAE6gq-77">
          <mxGeometry y="190" width="370" height="26" as="geometry" />
        </mxCell>
        <mxCell id="Jlm5J0GIkbgBk4xAE6gq-88" value="+ exit_clicked() : void" style="text;strokeColor=none;fillColor=none;align=left;verticalAlign=top;spacingLeft=4;spacingRight=4;overflow=hidden;rotatable=0;points=[[0,0.5],[1,0.5]];portConstraint=eastwest;whiteSpace=wrap;html=1;" vertex="1" parent="Jlm5J0GIkbgBk4xAE6gq-77">
          <mxGeometry y="216" width="370" height="26" as="geometry" />
        </mxCell>
        <mxCell id="Jlm5J0GIkbgBk4xAE6gq-114" value="- levelRequested() : void" style="text;strokeColor=none;fillColor=none;align=left;verticalAlign=top;spacingLeft=4;spacingRight=4;overflow=hidden;rotatable=0;points=[[0,0.5],[1,0.5]];portConstraint=eastwest;whiteSpace=wrap;html=1;" vertex="1" parent="Jlm5J0GIkbgBk4xAE6gq-77">
          <mxGeometry y="242" width="370" height="26" as="geometry" />
        </mxCell>
        <mxCell id="Jlm5J0GIkbgBk4xAE6gq-89" value="&lt;b&gt;&lt;u&gt;signals:&lt;/u&gt;&lt;/b&gt;" style="text;strokeColor=none;fillColor=none;align=left;verticalAlign=top;spacingLeft=4;spacingRight=4;overflow=hidden;rotatable=0;points=[[0,0.5],[1,0.5]];portConstraint=eastwest;whiteSpace=wrap;html=1;" vertex="1" parent="Jlm5J0GIkbgBk4xAE6gq-77">
          <mxGeometry y="268" width="370" height="26" as="geometry" />
        </mxCell>
        <mxCell id="Jlm5J0GIkbgBk4xAE6gq-90" value="- exit_click() : void" style="text;strokeColor=none;fillColor=none;align=left;verticalAlign=top;spacingLeft=4;spacingRight=4;overflow=hidden;rotatable=0;points=[[0,0.5],[1,0.5]];portConstraint=eastwest;whiteSpace=wrap;html=1;" vertex="1" parent="Jlm5J0GIkbgBk4xAE6gq-77">
          <mxGeometry y="294" width="370" height="26" as="geometry" />
        </mxCell>
        <mxCell id="Jlm5J0GIkbgBk4xAE6gq-96" value="- levelSelected() : void" style="text;strokeColor=none;fillColor=none;align=left;verticalAlign=top;spacingLeft=4;spacingRight=4;overflow=hidden;rotatable=0;points=[[0,0.5],[1,0.5]];portConstraint=eastwest;whiteSpace=wrap;html=1;" vertex="1" parent="Jlm5J0GIkbgBk4xAE6gq-77">
          <mxGeometry y="320" width="370" height="26" as="geometry" />
        </mxCell>
        <mxCell id="Jlm5J0GIkbgBk4xAE6gq-91" value="" style="endArrow=block;endSize=16;endFill=0;html=1;rounded=0;edgeStyle=orthogonalEdgeStyle;" edge="1" parent="WIyWlLk6GJQsqaUBKTNV-1" source="Jlm5J0GIkbgBk4xAE6gq-77" target="Jlm5J0GIkbgBk4xAE6gq-31">
          <mxGeometry x="0.125" y="50" width="160" relative="1" as="geometry">
            <mxPoint x="1110" y="1036" as="sourcePoint" />
            <mxPoint x="850" y="870" as="targetPoint" />
            <mxPoint as="offset" />
            <Array as="points">
              <mxPoint x="920" y="930" />
              <mxPoint x="485" y="930" />
            </Array>
          </mxGeometry>
        </mxCell>
        <mxCell id="Jlm5J0GIkbgBk4xAE6gq-116" value="QApplication" style="swimlane;fontStyle=0;childLayout=stackLayout;horizontal=1;startSize=26;fillColor=none;horizontalStack=0;resizeParent=1;resizeParentMax=0;resizeLast=0;collapsible=1;marginBottom=0;whiteSpace=wrap;html=1;" vertex="1" parent="WIyWlLk6GJQsqaUBKTNV-1">
          <mxGeometry x="120" y="1570" width="140" height="52" as="geometry" />
        </mxCell>
        <mxCell id="Jlm5J0GIkbgBk4xAE6gq-121" value="QPushButton" style="swimlane;fontStyle=0;childLayout=stackLayout;horizontal=1;startSize=26;fillColor=none;horizontalStack=0;resizeParent=1;resizeParentMax=0;resizeLast=0;collapsible=1;marginBottom=0;whiteSpace=wrap;html=1;" vertex="1" parent="WIyWlLk6GJQsqaUBKTNV-1">
          <mxGeometry x="295" y="1570" width="140" height="52" as="geometry" />
        </mxCell>
        <mxCell id="Jlm5J0GIkbgBk4xAE6gq-122" value="QPointer" style="swimlane;fontStyle=0;childLayout=stackLayout;horizontal=1;startSize=26;fillColor=none;horizontalStack=0;resizeParent=1;resizeParentMax=0;resizeLast=0;collapsible=1;marginBottom=0;whiteSpace=wrap;html=1;" vertex="1" parent="WIyWlLk6GJQsqaUBKTNV-1">
          <mxGeometry x="470" y="1570" width="140" height="52" as="geometry" />
        </mxCell>
        <mxCell id="Jlm5J0GIkbgBk4xAE6gq-123" value="&lt;span style=&quot;font-weight: normal;&quot;&gt;MenuUtils&lt;/span&gt;" style="swimlane;fontStyle=1;align=center;verticalAlign=top;childLayout=stackLayout;horizontal=1;startSize=26;horizontalStack=0;resizeParent=1;resizeParentMax=0;resizeLast=0;collapsible=1;marginBottom=0;whiteSpace=wrap;html=1;" vertex="1" parent="WIyWlLk6GJQsqaUBKTNV-1">
          <mxGeometry x="665" y="1570" width="470" height="320" as="geometry" />
        </mxCell>
        <mxCell id="Jlm5J0GIkbgBk4xAE6gq-124" value="- _scene : QGraphicsScene*" style="text;strokeColor=none;fillColor=none;align=left;verticalAlign=top;spacingLeft=4;spacingRight=4;overflow=hidden;rotatable=0;points=[[0,0.5],[1,0.5]];portConstraint=eastwest;whiteSpace=wrap;html=1;" vertex="1" parent="Jlm5J0GIkbgBk4xAE6gq-123">
          <mxGeometry y="26" width="470" height="26" as="geometry" />
        </mxCell>
        <mxCell id="Jlm5J0GIkbgBk4xAE6gq-140" value="- imageY : int" style="text;strokeColor=none;fillColor=none;align=left;verticalAlign=top;spacingLeft=4;spacingRight=4;overflow=hidden;rotatable=0;points=[[0,0.5],[1,0.5]];portConstraint=eastwest;whiteSpace=wrap;html=1;" vertex="1" parent="Jlm5J0GIkbgBk4xAE6gq-123">
          <mxGeometry y="52" width="470" height="26" as="geometry" />
        </mxCell>
        <mxCell id="Jlm5J0GIkbgBk4xAE6gq-139" value="- _app : QApplication*" style="text;strokeColor=none;fillColor=none;align=left;verticalAlign=top;spacingLeft=4;spacingRight=4;overflow=hidden;rotatable=0;points=[[0,0.5],[1,0.5]];portConstraint=eastwest;whiteSpace=wrap;html=1;" vertex="1" parent="Jlm5J0GIkbgBk4xAE6gq-123">
          <mxGeometry y="78" width="470" height="26" as="geometry" />
        </mxCell>
        <mxCell id="Jlm5J0GIkbgBk4xAE6gq-125" value="" style="line;strokeWidth=1;fillColor=none;align=left;verticalAlign=middle;spacingTop=-1;spacingLeft=3;spacingRight=3;rotatable=0;labelPosition=right;points=[];portConstraint=eastwest;strokeColor=inherit;" vertex="1" parent="Jlm5J0GIkbgBk4xAE6gq-123">
          <mxGeometry y="104" width="470" height="8" as="geometry" />
        </mxCell>
        <mxCell id="Jlm5J0GIkbgBk4xAE6gq-126" value="MenuUtils(QWidget* parent = nullptr)" style="text;strokeColor=none;fillColor=none;align=left;verticalAlign=top;spacingLeft=4;spacingRight=4;overflow=hidden;rotatable=0;points=[[0,0.5],[1,0.5]];portConstraint=eastwest;whiteSpace=wrap;html=1;" vertex="1" parent="Jlm5J0GIkbgBk4xAE6gq-123">
          <mxGeometry y="112" width="470" height="26" as="geometry" />
        </mxCell>
        <mxCell id="Jlm5J0GIkbgBk4xAE6gq-141" value="MenuUtils(QGraphicsScene* scene, QApplication* app, QWidget* parent = nullptr)" style="text;strokeColor=none;fillColor=none;align=left;verticalAlign=top;spacingLeft=4;spacingRight=4;overflow=hidden;rotatable=0;points=[[0,0.5],[1,0.5]];portConstraint=eastwest;whiteSpace=wrap;html=1;" vertex="1" parent="Jlm5J0GIkbgBk4xAE6gq-123">
          <mxGeometry y="138" width="470" height="26" as="geometry" />
        </mxCell>
        <mxCell id="Jlm5J0GIkbgBk4xAE6gq-145" value="+ import_image(QString path) : QLabel*" style="text;strokeColor=none;fillColor=none;align=left;verticalAlign=top;spacingLeft=4;spacingRight=4;overflow=hidden;rotatable=0;points=[[0,0.5],[1,0.5]];portConstraint=eastwest;whiteSpace=wrap;html=1;" vertex="1" parent="Jlm5J0GIkbgBk4xAE6gq-123">
          <mxGeometry y="164" width="470" height="26" as="geometry" />
        </mxCell>
        <mxCell id="Jlm5J0GIkbgBk4xAE6gq-144" value="+ add_exit() : CustomButton*" style="text;strokeColor=none;fillColor=none;align=left;verticalAlign=top;spacingLeft=4;spacingRight=4;overflow=hidden;rotatable=0;points=[[0,0.5],[1,0.5]];portConstraint=eastwest;whiteSpace=wrap;html=1;" vertex="1" parent="Jlm5J0GIkbgBk4xAE6gq-123">
          <mxGeometry y="190" width="470" height="26" as="geometry" />
        </mxCell>
        <mxCell id="Jlm5J0GIkbgBk4xAE6gq-143" value="+ import_image_up(QString path, bool add) : QLabel*" style="text;strokeColor=none;fillColor=none;align=left;verticalAlign=top;spacingLeft=4;spacingRight=4;overflow=hidden;rotatable=0;points=[[0,0.5],[1,0.5]];portConstraint=eastwest;whiteSpace=wrap;html=1;" vertex="1" parent="Jlm5J0GIkbgBk4xAE6gq-123">
          <mxGeometry y="216" width="470" height="26" as="geometry" />
        </mxCell>
        <mxCell id="Jlm5J0GIkbgBk4xAE6gq-142" value="+ add_center_button(QString path) : CustomButton*" style="text;strokeColor=none;fillColor=none;align=left;verticalAlign=top;spacingLeft=4;spacingRight=4;overflow=hidden;rotatable=0;points=[[0,0.5],[1,0.5]];portConstraint=eastwest;whiteSpace=wrap;html=1;" vertex="1" parent="Jlm5J0GIkbgBk4xAE6gq-123">
          <mxGeometry y="242" width="470" height="26" as="geometry" />
        </mxCell>
        <mxCell id="Jlm5J0GIkbgBk4xAE6gq-146" value="+ add_button(QString path, QWidget* widget) : CustomButton*" style="text;strokeColor=none;fillColor=none;align=left;verticalAlign=top;spacingLeft=4;spacingRight=4;overflow=hidden;rotatable=0;points=[[0,0.5],[1,0.5]];portConstraint=eastwest;whiteSpace=wrap;html=1;" vertex="1" parent="Jlm5J0GIkbgBk4xAE6gq-123">
          <mxGeometry y="268" width="470" height="26" as="geometry" />
        </mxCell>
        <mxCell id="Jlm5J0GIkbgBk4xAE6gq-147" value="+ set_as_sure() : void" style="text;strokeColor=none;fillColor=none;align=left;verticalAlign=top;spacingLeft=4;spacingRight=4;overflow=hidden;rotatable=0;points=[[0,0.5],[1,0.5]];portConstraint=eastwest;whiteSpace=wrap;html=1;" vertex="1" parent="Jlm5J0GIkbgBk4xAE6gq-123">
          <mxGeometry y="294" width="470" height="26" as="geometry" />
        </mxCell>
        <mxCell id="Jlm5J0GIkbgBk4xAE6gq-127" value="" style="endArrow=diamondThin;endFill=1;endSize=24;html=1;rounded=0;" edge="1" parent="WIyWlLk6GJQsqaUBKTNV-1" source="Jlm5J0GIkbgBk4xAE6gq-116" target="Jlm5J0GIkbgBk4xAE6gq-53">
          <mxGeometry width="160" relative="1" as="geometry">
            <mxPoint x="310" y="1600" as="sourcePoint" />
            <mxPoint x="-30" y="1670" as="targetPoint" />
          </mxGeometry>
        </mxCell>
        <mxCell id="Jlm5J0GIkbgBk4xAE6gq-128" value="" style="endArrow=diamondThin;endFill=1;endSize=24;html=1;rounded=0;" edge="1" parent="WIyWlLk6GJQsqaUBKTNV-1" source="Jlm5J0GIkbgBk4xAE6gq-121" target="Jlm5J0GIkbgBk4xAE6gq-53">
          <mxGeometry width="160" relative="1" as="geometry">
            <mxPoint x="344" y="1702" as="sourcePoint" />
            <mxPoint x="375" y="1560" as="targetPoint" />
          </mxGeometry>
        </mxCell>
        <mxCell id="Jlm5J0GIkbgBk4xAE6gq-129" value="" style="endArrow=diamondThin;endFill=1;endSize=24;html=1;rounded=0;exitX=0;exitY=0;exitDx=0;exitDy=0;" edge="1" parent="WIyWlLk6GJQsqaUBKTNV-1" source="Jlm5J0GIkbgBk4xAE6gq-122" target="Jlm5J0GIkbgBk4xAE6gq-53">
          <mxGeometry width="160" relative="1" as="geometry">
            <mxPoint x="570" y="1590" as="sourcePoint" />
            <mxPoint x="730" y="1590" as="targetPoint" />
          </mxGeometry>
        </mxCell>
        <mxCell id="Jlm5J0GIkbgBk4xAE6gq-130" value="" style="endArrow=diamondThin;endFill=1;endSize=24;html=1;rounded=0;exitX=0.5;exitY=0;exitDx=0;exitDy=0;" edge="1" parent="WIyWlLk6GJQsqaUBKTNV-1" source="Jlm5J0GIkbgBk4xAE6gq-116" target="Jlm5J0GIkbgBk4xAE6gq-71">
          <mxGeometry width="160" relative="1" as="geometry">
            <mxPoint x="501" y="1680" as="sourcePoint" />
            <mxPoint x="350" y="1490" as="targetPoint" />
          </mxGeometry>
        </mxCell>
        <mxCell id="Jlm5J0GIkbgBk4xAE6gq-131" value="" style="endArrow=diamondThin;endFill=1;endSize=24;html=1;rounded=0;" edge="1" parent="WIyWlLk6GJQsqaUBKTNV-1" source="Jlm5J0GIkbgBk4xAE6gq-116" target="Jlm5J0GIkbgBk4xAE6gq-71">
          <mxGeometry width="160" relative="1" as="geometry">
            <mxPoint x="220" y="1712" as="sourcePoint" />
            <mxPoint x="489" y="1366" as="targetPoint" />
          </mxGeometry>
        </mxCell>
        <mxCell id="Jlm5J0GIkbgBk4xAE6gq-132" value="" style="endArrow=diamondThin;endFill=1;endSize=24;html=1;rounded=0;" edge="1" parent="WIyWlLk6GJQsqaUBKTNV-1" source="Jlm5J0GIkbgBk4xAE6gq-116" target="Jlm5J0GIkbgBk4xAE6gq-96">
          <mxGeometry width="160" relative="1" as="geometry">
            <mxPoint x="230" y="1712" as="sourcePoint" />
            <mxPoint x="490" y="1366" as="targetPoint" />
          </mxGeometry>
        </mxCell>
        <mxCell id="Jlm5J0GIkbgBk4xAE6gq-133" value="" style="endArrow=diamondThin;endFill=1;endSize=24;html=1;rounded=0;" edge="1" parent="WIyWlLk6GJQsqaUBKTNV-1" source="Jlm5J0GIkbgBk4xAE6gq-121" target="Jlm5J0GIkbgBk4xAE6gq-71">
          <mxGeometry width="160" relative="1" as="geometry">
            <mxPoint x="240" y="1722" as="sourcePoint" />
            <mxPoint x="500" y="1376" as="targetPoint" />
          </mxGeometry>
        </mxCell>
        <mxCell id="Jlm5J0GIkbgBk4xAE6gq-134" value="" style="endArrow=diamondThin;endFill=1;endSize=24;html=1;rounded=0;" edge="1" parent="WIyWlLk6GJQsqaUBKTNV-1" source="Jlm5J0GIkbgBk4xAE6gq-121" target="Jlm5J0GIkbgBk4xAE6gq-71">
          <mxGeometry width="160" relative="1" as="geometry">
            <mxPoint x="400" y="1720" as="sourcePoint" />
            <mxPoint x="496" y="1366" as="targetPoint" />
          </mxGeometry>
        </mxCell>
        <mxCell id="Jlm5J0GIkbgBk4xAE6gq-135" value="" style="endArrow=diamondThin;endFill=1;endSize=24;html=1;rounded=0;" edge="1" parent="WIyWlLk6GJQsqaUBKTNV-1" source="Jlm5J0GIkbgBk4xAE6gq-122" target="Jlm5J0GIkbgBk4xAE6gq-96">
          <mxGeometry width="160" relative="1" as="geometry">
            <mxPoint x="393" y="1712" as="sourcePoint" />
            <mxPoint x="496" y="1366" as="targetPoint" />
          </mxGeometry>
        </mxCell>
        <mxCell id="Jlm5J0GIkbgBk4xAE6gq-136" value="" style="endArrow=diamondThin;endFill=1;endSize=24;html=1;rounded=0;" edge="1" parent="WIyWlLk6GJQsqaUBKTNV-1" source="Jlm5J0GIkbgBk4xAE6gq-123" target="Jlm5J0GIkbgBk4xAE6gq-53">
          <mxGeometry width="160" relative="1" as="geometry">
            <mxPoint x="585" y="1712" as="sourcePoint" />
            <mxPoint x="918" y="1366" as="targetPoint" />
            <Array as="points">
              <mxPoint x="620" y="1500" />
            </Array>
          </mxGeometry>
        </mxCell>
        <mxCell id="Jlm5J0GIkbgBk4xAE6gq-137" value="" style="endArrow=diamondThin;endFill=1;endSize=24;html=1;rounded=0;" edge="1" parent="WIyWlLk6GJQsqaUBKTNV-1" source="Jlm5J0GIkbgBk4xAE6gq-123" target="Jlm5J0GIkbgBk4xAE6gq-71">
          <mxGeometry width="160" relative="1" as="geometry">
            <mxPoint x="585" y="1712" as="sourcePoint" />
            <mxPoint x="918" y="1366" as="targetPoint" />
          </mxGeometry>
        </mxCell>
        <mxCell id="Jlm5J0GIkbgBk4xAE6gq-138" value="" style="endArrow=diamondThin;endFill=1;endSize=24;html=1;rounded=0;" edge="1" parent="WIyWlLk6GJQsqaUBKTNV-1" source="Jlm5J0GIkbgBk4xAE6gq-123" target="Jlm5J0GIkbgBk4xAE6gq-96">
          <mxGeometry width="160" relative="1" as="geometry">
            <mxPoint x="875" y="1712" as="sourcePoint" />
            <mxPoint x="514" y="1366" as="targetPoint" />
          </mxGeometry>
        </mxCell>
        <mxCell id="Jlm5J0GIkbgBk4xAE6gq-148" value="&lt;span style=&quot;font-weight: normal;&quot;&gt;CustomButton&lt;/span&gt;" style="swimlane;fontStyle=1;align=center;verticalAlign=top;childLayout=stackLayout;horizontal=1;startSize=26;horizontalStack=0;resizeParent=1;resizeParentMax=0;resizeLast=0;collapsible=1;marginBottom=0;whiteSpace=wrap;html=1;" vertex="1" parent="WIyWlLk6GJQsqaUBKTNV-1">
          <mxGeometry x="90" y="1696" width="470" height="320" as="geometry" />
        </mxCell>
        <mxCell id="Jlm5J0GIkbgBk4xAE6gq-149" value="- _imgName : QString" style="text;strokeColor=none;fillColor=none;align=left;verticalAlign=top;spacingLeft=4;spacingRight=4;overflow=hidden;rotatable=0;points=[[0,0.5],[1,0.5]];portConstraint=eastwest;whiteSpace=wrap;html=1;" vertex="1" parent="Jlm5J0GIkbgBk4xAE6gq-148">
          <mxGeometry y="26" width="470" height="26" as="geometry" />
        </mxCell>
        <mxCell id="Jlm5J0GIkbgBk4xAE6gq-150" value="" style="line;strokeWidth=1;fillColor=none;align=left;verticalAlign=middle;spacingTop=-1;spacingLeft=3;spacingRight=3;rotatable=0;labelPosition=right;points=[];portConstraint=eastwest;strokeColor=inherit;" vertex="1" parent="Jlm5J0GIkbgBk4xAE6gq-148">
          <mxGeometry y="52" width="470" height="8" as="geometry" />
        </mxCell>
        <mxCell id="Jlm5J0GIkbgBk4xAE6gq-151" value="CustomButton(const QString&amp;amp; imgName, QWidget* parent = nullptr)" style="text;strokeColor=none;fillColor=none;align=left;verticalAlign=top;spacingLeft=4;spacingRight=4;overflow=hidden;rotatable=0;points=[[0,0.5],[1,0.5]];portConstraint=eastwest;whiteSpace=wrap;html=1;" vertex="1" parent="Jlm5J0GIkbgBk4xAE6gq-148">
          <mxGeometry y="60" width="470" height="26" as="geometry" />
        </mxCell>
        <mxCell id="Jlm5J0GIkbgBk4xAE6gq-157" value="+ enterEvent(QEvent* e) : void" style="text;strokeColor=none;fillColor=none;align=left;verticalAlign=top;spacingLeft=4;spacingRight=4;overflow=hidden;rotatable=0;points=[[0,0.5],[1,0.5]];portConstraint=eastwest;whiteSpace=wrap;html=1;" vertex="1" parent="Jlm5J0GIkbgBk4xAE6gq-148">
          <mxGeometry y="86" width="470" height="26" as="geometry" />
        </mxCell>
        <mxCell id="Jlm5J0GIkbgBk4xAE6gq-156" value="+ leaveEvent(QEvent* e) : void" style="text;strokeColor=none;fillColor=none;align=left;verticalAlign=top;spacingLeft=4;spacingRight=4;overflow=hidden;rotatable=0;points=[[0,0.5],[1,0.5]];portConstraint=eastwest;whiteSpace=wrap;html=1;" vertex="1" parent="Jlm5J0GIkbgBk4xAE6gq-148">
          <mxGeometry y="112" width="470" height="26" as="geometry" />
        </mxCell>
        <mxCell id="Jlm5J0GIkbgBk4xAE6gq-155" value="+ event(QEvent* e) : bool" style="text;strokeColor=none;fillColor=none;align=left;verticalAlign=top;spacingLeft=4;spacingRight=4;overflow=hidden;rotatable=0;points=[[0,0.5],[1,0.5]];portConstraint=eastwest;whiteSpace=wrap;html=1;" vertex="1" parent="Jlm5J0GIkbgBk4xAE6gq-148">
          <mxGeometry y="138" width="470" height="26" as="geometry" />
        </mxCell>
        <mxCell id="Jlm5J0GIkbgBk4xAE6gq-154" value="+ hoverEnter(QHoverEvent* event) : void" style="text;strokeColor=none;fillColor=none;align=left;verticalAlign=top;spacingLeft=4;spacingRight=4;overflow=hidden;rotatable=0;points=[[0,0.5],[1,0.5]];portConstraint=eastwest;whiteSpace=wrap;html=1;" vertex="1" parent="Jlm5J0GIkbgBk4xAE6gq-148">
          <mxGeometry y="164" width="470" height="26" as="geometry" />
        </mxCell>
        <mxCell id="Jlm5J0GIkbgBk4xAE6gq-159" value="+ hoverLeave(QHoverEvent* event) : void" style="text;strokeColor=none;fillColor=none;align=left;verticalAlign=top;spacingLeft=4;spacingRight=4;overflow=hidden;rotatable=0;points=[[0,0.5],[1,0.5]];portConstraint=eastwest;whiteSpace=wrap;html=1;" vertex="1" parent="Jlm5J0GIkbgBk4xAE6gq-148">
          <mxGeometry y="190" width="470" height="26" as="geometry" />
        </mxCell>
        <mxCell id="Jlm5J0GIkbgBk4xAE6gq-158" value="+ hoverMove(QHoverEvent* event) : void" style="text;strokeColor=none;fillColor=none;align=left;verticalAlign=top;spacingLeft=4;spacingRight=4;overflow=hidden;rotatable=0;points=[[0,0.5],[1,0.5]];portConstraint=eastwest;whiteSpace=wrap;html=1;" vertex="1" parent="Jlm5J0GIkbgBk4xAE6gq-148">
          <mxGeometry y="216" width="470" height="26" as="geometry" />
        </mxCell>
        <mxCell id="Jlm5J0GIkbgBk4xAE6gq-160" value="&lt;b&gt;&lt;u&gt;slots:&lt;/u&gt;&lt;/b&gt;" style="text;strokeColor=none;fillColor=none;align=left;verticalAlign=top;spacingLeft=4;spacingRight=4;overflow=hidden;rotatable=0;points=[[0,0.5],[1,0.5]];portConstraint=eastwest;whiteSpace=wrap;html=1;" vertex="1" parent="Jlm5J0GIkbgBk4xAE6gq-148">
          <mxGeometry y="242" width="470" height="26" as="geometry" />
        </mxCell>
        <mxCell id="Jlm5J0GIkbgBk4xAE6gq-163" value="+ selected() : void" style="text;strokeColor=none;fillColor=none;align=left;verticalAlign=top;spacingLeft=4;spacingRight=4;overflow=hidden;rotatable=0;points=[[0,0.5],[1,0.5]];portConstraint=eastwest;whiteSpace=wrap;html=1;" vertex="1" parent="Jlm5J0GIkbgBk4xAE6gq-148">
          <mxGeometry y="268" width="470" height="26" as="geometry" />
        </mxCell>
        <mxCell id="Jlm5J0GIkbgBk4xAE6gq-162" value="+ deselected() : void" style="text;strokeColor=none;fillColor=none;align=left;verticalAlign=top;spacingLeft=4;spacingRight=4;overflow=hidden;rotatable=0;points=[[0,0.5],[1,0.5]];portConstraint=eastwest;whiteSpace=wrap;html=1;" vertex="1" parent="Jlm5J0GIkbgBk4xAE6gq-148">
          <mxGeometry y="294" width="470" height="26" as="geometry" />
        </mxCell>
        <mxCell id="Jlm5J0GIkbgBk4xAE6gq-153" value="" style="endArrow=diamondThin;endFill=0;endSize=24;html=1;rounded=0;" edge="1" parent="WIyWlLk6GJQsqaUBKTNV-1" source="Jlm5J0GIkbgBk4xAE6gq-148" target="Jlm5J0GIkbgBk4xAE6gq-123">
          <mxGeometry width="160" relative="1" as="geometry">
            <mxPoint x="370" y="1820" as="sourcePoint" />
            <mxPoint x="530" y="1820" as="targetPoint" />
          </mxGeometry>
        </mxCell>
        <mxCell id="Jlm5J0GIkbgBk4xAE6gq-164" value="" style="endArrow=block;endSize=16;endFill=0;html=1;rounded=0;edgeStyle=orthogonalEdgeStyle;" edge="1" parent="WIyWlLk6GJQsqaUBKTNV-1" source="Jlm5J0GIkbgBk4xAE6gq-148" target="Jlm5J0GIkbgBk4xAE6gq-121">
          <mxGeometry x="0.125" y="50" width="160" relative="1" as="geometry">
            <mxPoint x="307.5" y="1696" as="sourcePoint" />
            <mxPoint x="-127.5" y="1540" as="targetPoint" />
            <mxPoint as="offset" />
            <Array as="points">
              <mxPoint x="300" y="1610" />
              <mxPoint x="300" y="1610" />
            </Array>
          </mxGeometry>
        </mxCell>
      </root>
    </mxGraphModel>
  </diagram>
</mxfile>
